<?xml version="1.0" encoding="UTF-8"?>
<svg id="_图层_1" data-name="图层_1" xmlns="http://www.w3.org/2000/svg" xmlns:xlink="http://www.w3.org/1999/xlink" version="1.1" viewBox="0 0 720 684">
  <!-- Generator: Adobe Illustrator 29.1.0, SVG Export Plug-In . SVG Version: 2.1.0 Build 142)  -->
  <defs>
    <style>
      .st0 {
        fill: url(#_未命名的渐变_2);
      }

      .st1 {
        fill: url(#_未命名的渐变_5);
      }

      .st2 {
        fill: url(#_未命名的渐变_4);
      }

      .st3 {
        fill: url(#_未命名的渐变_3);
      }

      .st4 {
        fill: url(#_未命名的渐变_691);
      }

      .st5 {
        fill: url(#_未命名的渐变_692);
      }

      .st6 {
        fill: url(#_未命名的渐变_694);
      }

      .st7 {
        fill: url(#_未命名的渐变_693);
      }

      .st8 {
        opacity: .7;
      }

      .st9 {
        fill: url(#_未命名的渐变_69);
      }
    </style>
    <linearGradient id="_未命名的渐变_69" data-name="未命名的渐变 69" x1="354.3" y1="686" x2="354.3" y2="403.8" gradientTransform="translate(0 686) scale(1 -1)" gradientUnits="userSpaceOnUse">
      <stop offset=".2" stop-color="#de7989"/>
      <stop offset=".6" stop-color="#efcedb"/>
      <stop offset=".7" stop-color="#f6dce8" stop-opacity=".9"/>
      <stop offset="1" stop-color="#faf7f8"/>
    </linearGradient>
    <linearGradient id="_未命名的渐变_2" data-name="未命名的渐变 2" x1="673.9" y1="461.5" x2="405.5" y2="374.3" gradientTransform="translate(0 686) scale(1 -1)" gradientUnits="userSpaceOnUse">
      <stop offset=".2" stop-color="#6c9ce4"/>
      <stop offset=".6" stop-color="#829fd6"/>
      <stop offset=".7" stop-color="#8aa4d9" stop-opacity=".9"/>
      <stop offset="1" stop-color="#d8e1f4"/>
    </linearGradient>
    <linearGradient id="_未命名的渐变_3" data-name="未命名的渐变 3" x1="559.2" y1="88.1" x2="393.3" y2="316.4" gradientTransform="translate(0 686) scale(1 -1)" gradientUnits="userSpaceOnUse">
      <stop offset=".2" stop-color="#6c9ce4"/>
      <stop offset=".6" stop-color="#829fd6"/>
      <stop offset=".7" stop-color="#8aa4d9" stop-opacity=".9"/>
      <stop offset="1" stop-color="#d8e1f4"/>
    </linearGradient>
    <linearGradient id="_未命名的渐变_4" data-name="未命名的渐变 4" x1="168.6" y1="81.9" x2="334.5" y2="310.2" gradientTransform="translate(0 686) scale(1 -1)" gradientUnits="userSpaceOnUse">
      <stop offset=".2" stop-color="#6c9ce4"/>
      <stop offset=".6" stop-color="#829fd6"/>
      <stop offset=".7" stop-color="#8aa4d9" stop-opacity=".9"/>
      <stop offset="1" stop-color="#d8e1f4"/>
    </linearGradient>
    <linearGradient id="_未命名的渐变_5" data-name="未命名的渐变 5" x1="42" y1="451.4" x2="310.4" y2="364.2" gradientTransform="translate(0 686) scale(1 -1)" gradientUnits="userSpaceOnUse">
      <stop offset=".2" stop-color="#6c9ce4"/>
      <stop offset=".6" stop-color="#829fd6"/>
      <stop offset=".7" stop-color="#8aa4d9" stop-opacity=".9"/>
      <stop offset="1" stop-color="#d8e1f4"/>
    </linearGradient>
    <linearGradient id="_未命名的渐变_691" data-name="未命名的渐变 69" x1="495.5" y1="558" x2="495.5" y2="275.7" gradientTransform="translate(-9.9 -81.3) rotate(72.6) scale(1 -1)" xlink:href="#_未命名的渐变_69"/>
    <linearGradient id="_未命名的渐变_692" data-name="未命名的渐变 69" x1="523.2" y1="479.3" x2="523.2" y2="197.1" gradientTransform="translate(341.2 882) rotate(-72.3) scale(1 -1)" xlink:href="#_未命名的渐变_69"/>
    <linearGradient id="_未命名的渐变_693" data-name="未命名的渐变 69" x1="474.4" y1="493.9" x2="474.4" y2="211.7" gradientTransform="translate(845.9 480.9) rotate(-144.3) scale(1 -1)" xlink:href="#_未命名的渐变_69"/>
    <linearGradient id="_未命名的渐变_694" data-name="未命名的渐变 69" x1="654.1" y1="603.6" x2="654.1" y2="321.4" gradientTransform="translate(739.2 -278) rotate(144.4) scale(1 -1)" xlink:href="#_未命名的渐变_69"/>
  </defs>
  <g class="st8">
    <path class="st9" d="M355.1,12c8,0,42.6,15.8,57.6,26.2,10.1,7,5.4,3.7,13.9,10.7,42.8,35.3,43.1,59.8,46.9,95.1.4,3.5.6,7,.6,10.4,0,38.9-23,77.7-69,116.6-5.6,4.7-11.5,9.4-17.7,14.1h-66.2c-6.2-4.7-12.1-9.4-17.7-14.1-46-38.9-69-77.7-69-116.6s.2-7,.6-10.4c3.8-35.3,3.7-59.9,46.5-95.1,8.5-7,4.4-3.7,14.5-10.7,17-11.9,51-26.2,59-26.2Z"/>
    <path class="st0" d="M662.8,229c2.5,7.6-1.8,45.4-7.2,62.9-3.6,11.8-1.9,6.3-5.9,16.6-20.3,51.6-43.6,59.5-76,74-3.2,1.4-6.4,2.7-9.8,3.8-37,12-81,2.1-132.2-29.6-6.2-3.8-12.5-8-18.9-12.5l-20.5-62.9c2.5-7.4,5.2-14.5,7.9-21.2,22.7-55.7,52.6-89.6,89.5-101.6,3.3-1.1,6.7-2,10.1-2.7,34.8-7.3,58.1-15,104.9,14.8,9.3,5.9,4.9,3.1,14.7,10.5,16.5,12.5,40.7,40.4,43.2,48Z"/>
    <path class="st3" d="M551.5,588.7c-6.5,4.7-43.7,12.3-62,12.6-12.3.2-6.5.2-17.6-.5-55.4-3.4-70-23.1-93.9-49.4-2.4-2.6-4.6-5.3-6.6-8.1-22.8-31.4-27.1-76.4-12.7-134.9,1.7-7.1,3.8-14.4,6-21.8l53.5-38.9c7.8.1,15.4.5,22.6,1,60,4.4,101.5,22.3,124.3,53.8,2,2.8,3.9,5.7,5.7,8.8,17.7,30.8,32.2,50.6,18.3,104.3-2.8,10.7-1.4,5.6-5.4,17.2-6.8,19.6-25.8,51.2-32.3,55.9Z"/>
    <path class="st2" d="M175,594c-6.5-4.7-25.2-37.8-31.2-55.1-4-11.6-2.2-6.2-5-16.9-13.9-53.7.3-73.7,18-104.6,1.7-3,3.6-6,5.7-8.8,22.8-31.4,64.3-49.4,124.3-53.8,7.3-.5,14.8-.9,22.6-1l53.5,38.9c2.3,7.5,4.3,14.8,6,21.8,14.4,58.5,10.1,103.4-12.7,134.8-2,2.8-4.2,5.5-6.6,8.1-23.9,26.3-38.2,46.3-93.5,49.6-11,.7-5.7.4-18,.2-20.7-.4-56.7-8.8-63.2-13.5Z"/>
    <path class="st1" d="M53.6,237.6c2.5-7.6,28.2-35.6,42.7-46.7,9.8-7.4,5.2-4,14.5-9.9,46.8-29.8,70.2-22.5,105-15.2,3.4.7,6.8,1.6,10.1,2.7,37,12,66.8,45.9,89.5,101.6,2.8,6.7,5.4,13.8,7.9,21.2l-20.5,62.9c-6.4,4.5-12.7,8.6-18.9,12.5-51.2,31.7-95.2,41.6-132.2,29.6-3.3-1.1-6.6-2.3-9.8-3.8-32.4-14.6-55.8-22-76.1-73.6-4.1-10.3-2.2-5.3-5.7-17.1-6-19.8-9.2-56.6-6.7-64.2Z"/>
  </g>
  <path class="st4" d="M663.7,229.9c2.4,7.7-2.3,45.6-7.9,63.1-3.7,11.8-1.9,6.3-6.1,16.6-21,51.7-44.5,59.3-77.2,73.7-3.2,1.4-6.5,2.6-9.9,3.7-37.3,11.7-81.5,1.4-132.7-31-6.2-3.9-12.5-8.2-18.9-12.7l-19.9-63.4c2.6-7.4,5.4-14.5,8.2-21.2,23.5-55.8,53.9-89.5,91.2-101.2,3.3-1,6.7-1.9,10.2-2.6,35.1-7,58.6-14.5,105.4,15.9,9.3,6.1,4.9,3.1,14.7,10.7,16.5,12.7,40.5,41,42.9,48.6Z"/>
  <path class="st5" d="M53,237.6c2.4-7.7,28.1-35.9,42.7-47.1,9.8-7.5,5.2-4,14.5-10,46.9-30.2,70.5-23,105.6-15.8,3.5.7,6.8,1.6,10.2,2.6,37.3,11.9,67.5,45.8,90.7,101.7,2.8,6.8,5.5,13.9,8.1,21.3l-20.2,63.3c-6.4,4.5-12.7,8.8-18.9,12.6-51.3,32.1-95.6,42.3-132.8,30.4-3.3-1.1-6.6-2.3-9.8-3.7-32.7-14.5-56.3-21.8-77-73.6-4.1-10.3-2.2-5.4-5.9-17.2-6.2-19.9-9.6-56.8-7.2-64.5Z"/>
  <path class="st7" d="M175.3,596.2c-6.5-4.7-25.5-37.9-31.6-55.2-4.1-11.7-2.2-6.2-5.1-16.9-14.2-53.9,0-74.2,17.6-105.3,1.7-3.1,3.6-6,5.7-8.9,22.8-31.8,64.4-50,124.7-54.8,7.3-.6,14.9-1,22.7-1.1l54,38.8c2.3,7.5,4.4,14.8,6.2,21.9,14.7,58.7,10.6,104-12.2,135.7s-4.2,5.6-6.6,8.2c-23.9,26.6-38.2,46.8-93.8,50.5-11.1.7-5.8.4-18.1.3-20.8-.3-57-8.5-63.5-13.1Z"/>
  <path class="st6" d="M551.4,589.2c-6.5,4.7-44,12-62.4,12.2-12.4.1-6.6.1-17.7-.6-55.7-3.8-70.3-23.7-94.1-50.4-2.4-2.6-4.5-5.4-6.6-8.2-22.8-31.8-26.8-77-12-135.7,1.8-7.1,3.9-14.4,6.2-21.9l54-38.7c7.9.2,15.4.6,22.7,1.2,60.3,4.9,101.9,23.2,124.7,55,2,2.8,3.9,5.8,5.7,8.9,17.6,31.1,32.1,51.1,17.8,105-2.8,10.8-1.4,5.6-5.5,17.3-6.9,19.6-26.3,51.3-32.8,56Z"/>
</svg>